<svg xmlns:xlink="http://www.w3.org/1999/xlink" xmlns="http://www.w3.org/2000/svg" height="223" width="350.00000000000006" style="width: 350px; height: 223px; position: absolute; top: 50%; left: 50%; transform: translate(-50%, -50%) scale(1); z-index: 0; cursor: pointer;"><defs id="SvgjsDefs1001"><linearGradient id="SvgjsLinearGradient1013"><stop id="SvgjsStop1014" stop-color="#b88746" offset="0"></stop><stop id="SvgjsStop1015" stop-color="#fdf5a6" offset="1"></stop></linearGradient><linearGradient id="SvgjsLinearGradient1013"><stop id="SvgjsStop1014" stop-color="#b88746" offset="0"></stop><stop id="SvgjsStop1015" stop-color="#fdf5a6" offset="1"></stop></linearGradient><linearGradient id="SvgjsLinearGradient1013"><stop id="SvgjsStop1014" stop-color="#b88746" offset="0"></stop><stop id="SvgjsStop1015" stop-color="#fdf5a6" offset="1"></stop></linearGradient><linearGradient id="SvgjsLinearGradient1013"><stop id="SvgjsStop1014" stop-color="#b88746" offset="0"></stop><stop id="SvgjsStop1015" stop-color="#fdf5a6" offset="1"></stop></linearGradient><linearGradient id="SvgjsLinearGradient1013"><stop id="SvgjsStop1014" stop-color="#b88746" offset="0"></stop><stop id="SvgjsStop1015" stop-color="#fdf5a6" offset="1"></stop></linearGradient><linearGradient id="SvgjsLinearGradient1013"><stop id="SvgjsStop1014" stop-color="#b88746" offset="0"></stop><stop id="SvgjsStop1015" stop-color="#fdf5a6" offset="1"></stop></linearGradient></defs><g id="SvgjsG1007" featurekey="rootContainer" transform="matrix(1,0,0,1,0,0)" fill="#FFFFFF"><rect y="0" height="1" width="1" opacity="0" fill="#FFFFFF"></rect><rect y="218" width="350" height="5" fill="#FFFFFF"></rect></g><g id="SvgjsG1008" featurekey="symbolFeature-0" transform="matrix(1.2905605591108764,0,0,1.2905605591108764,110.8053090701129,15.160766708417349)" fill="url(&quot;#SvgjsLinearGradient1013&quot;)"><g xmlns="http://www.w3.org/2000/svg" fill="url(&quot;#SvgjsLinearGradient1013&quot;)"><polygon points="95.2,97.8 87.2,97.8 87.2,50.7 50,13.5 12.8,50.7 12.8,77.5 70,77.5 70,85.5 4.8,85.5 4.8,47.4 50,2.2      95.2,47.4    " fill="url(&quot;#SvgjsLinearGradient1013&quot;)"></polygon></g><g xmlns="http://www.w3.org/2000/svg" fill="url(&quot;#SvgjsLinearGradient1013&quot;)"><polygon points="82.4,97.8 4.8,97.8 4.8,89.8 74.4,89.8 74.4,55.7 50,31.3 25.6,55.7 25.6,73.1 17.6,73.1 17.6,52.4 50,20      82.4,52.4    " fill="url(&quot;#SvgjsLinearGradient1013&quot;)"></polygon></g></g><g id="SvgjsG1009" featurekey="nameFeature-0" transform="matrix(1.0018347636523224,0,0,1.0018347636523224,0.8014680020066746,151.14194768364146)" fill="#FFFFFF"><path d="M23 36.4 c0 6.48 -2.8 15.08 -8.76 18.4 l-0.08 -0.24 c5.24 -3.88 7.04 -10.76 7.2 -17.4 c-2.44 2.36 -5.8 3.28 -9.52 3.28 c-6.72 0 -12.64 -4.76 -12.64 -13.16 c0 -8.24 6.4 -12.84 13.48 -12.84 c3.44 0 7.04 1.08 10.16 3.32 l0 2.12 l-0.24 0 c-2.4 -3.36 -6.28 -4.96 -10.08 -4.96 c-6.04 0 -12 4 -12 11.48 c0 8.28 5.92 13.44 12.4 13.44 c5.2 0 8.44 -3.24 8.44 -8.72 l0 -0.92 l-0.04 0.2 c0 -1.8 -0.76 -1.84 -2.72 -1.84 l0 -0.32 l7.16 0 l0 0.32 c-1.92 0 -2.72 0.04 -2.76 1.76 l0 6.08 z M51.309000000000005 30.119999999999997 c-1.48 3.36 -0.76 3.64 1.76 3.64 l0 0.28 l-6.64 0 l0 -0.28 c1.96 0 2.56 -0.04 3.48 -1.84 l7.88 -17.88 l0.2 0 l7.68 17.28 c1.04 2.08 1.12 2.44 3.08 2.44 l0 0.28 l-6.08 0 l0 -0.28 c2.04 0 2.28 -0.24 1.32 -2.56 l-2.16 -4.84 l-8.84 0 z M68.269 37.28 c-3.52 3.24 -7.16 4.24 -10.92 4.24 c-14.4 0 -17.76 -13.56 -26.84 -13.76 l0 10.08 c0 1.8 0.8 1.84 2.76 1.84 l0 0.28 l-7.16 0 l0 -0.28 c1.96 0 2.76 -0.04 2.76 -1.84 l0 -21 c0 -1.8 -0.8 -1.84 -2.76 -1.84 l0 -0.28 l9.6 0 c7.8 0 10.28 3.88 10.28 7.04 c0 4.36 -3.32 7.2 -7.52 7.2 c-0.56 0 -1.12 -0.04 -1.72 -0.16 c5.8 3.4 10.64 11.64 21.72 11.64 c3.44 0 6.52 -0.96 9.6 -3.4 z M34.669000000000004 27.84 c0.96 0.32 1.92 0.44 2.8 0.44 c3.84 0 6.8 -2.72 6.8 -6.8 c0 -3.2 -2.8 -6.32 -8.52 -6.32 l-5.24 0 l0 12.2 l1.4 0 c0.96 0 1.88 0.16 2.76 0.48 z M57.389 16.4 l-4.2 9.48 l8.4 0 z M93.37800000000001 38.2 l0.04 0 l0 2.28 l-0.48 0 l-18.12 -23.76 l0 21.16 c0 1.84 1.44 1.88 2.72 1.88 l0 0.28 l-6 0 l0 -0.28 c1.32 0 2.72 -0.04 2.72 -1.88 l0 -20.96 c0 -1.84 -1.44 -1.88 -2.72 -1.88 l0 -0.28 l4.04 0 l17.28 22.72 l0 -20.56 c0 -1.84 -1.48 -1.88 -2.76 -1.88 l0 -0.28 l6.04 0 l0 0.28 c-1.28 0 -2.76 0.04 -2.76 1.88 l0 21.28 z M110.36700000000002 14.760000000000002 c16.72 0 16.72 25.28 0 25.28 l-11.44 0 l0 -0.28 c1.96 0 2.76 -0.52 2.76 -2.32 l0 -20.08 c0 -1.8 -0.8 -2.32 -2.76 -2.32 l0 -0.28 l11.44 0 z M103.32700000000003 37.36 c0 1.8 0.76 2.24 2.72 2.24 l4.32 0 c14.28 0 14.32 -24.4 0 -24.4 l-7.04 0 l0 22.16 z M147.67600000000002 34 l0.32 0.04 l-1.76 6 l-19.72 0 l0 -0.28 c1.96 0 2.76 -0.04 2.76 -1.88 l0 -20.96 c0 -1.84 -0.8 -1.88 -2.76 -1.88 l0 -0.28 l18.36 0 l1.76 6 l-0.32 0.08 c-1.72 -5.52 -2.04 -5.64 -5.68 -5.64 l-9.72 0 l0 11.28 l5.92 0 c1.84 0 2.36 -0.4 2.68 -1.8 l0.2 0 l0 4.08 l-0.2 0 c-0.32 -1.4 -0.84 -1.8 -2.68 -1.8 l-5.92 0 l0 10.84 c0 1.6 0.6 1.76 2.04 1.8 l9.04 0 c4 0 3.96 -0.32 5.68 -5.6 z M174.18500000000003 30.72 c0.08 6.6 -5.32 9.92 -10.68 9.92 s-10.68 -3.32 -10.64 -9.92 l0 -13.8 c0 -1.84 -0.8 -1.88 -2.76 -1.88 l0 -0.28 l7.16 0 l0 0.28 c-1.96 0 -2.76 0.04 -2.76 1.88 l0 13.8 c0 6.24 4.48 9.36 9 9.36 c4.48 0 9 -3.12 9 -9.36 l0 -13.8 c0 -1.84 -0.76 -1.88 -2.72 -1.88 l0 -0.28 l9.6 0 c12.2 0 12.88 13.36 2 14.84 c7.24 1.48 8.04 10.16 11.12 10.16 l0 0.28 l-3.44 0 c-1.68 -3.64 -4.56 -10.32 -9.84 -10.32 l-5.04 0 l0 1 z M174.18500000000003 27.48 c0 1.6 0.56 1.76 2.04 1.8 l3.16 0 c10.44 0 10.44 -14.08 0 -14.08 l-5.2 0 l0 12.28 z M218.80300000000003 37.92 c0 1.84 0.76 1.88 2.72 1.88 l0 0.28 l-7.12 0 l0 -0.28 c1.96 0 2.72 -0.04 2.72 -1.88 l0 -20.96 c0 -1.84 -0.76 -1.88 -2.72 -1.88 l0 -0.28 l4.4 0 l0 10.96 c0 1.84 0.76 1.8 2.72 1.8 l1.68 0 c11.24 0 12.72 -17.28 -3.64 -17.28 c-19.96 0 -18.64 22.88 -5.96 25.04 l-0.04 0.28 c-14.72 -0.96 -16.72 -25.76 6 -25.76 c18.6 0 17.48 18.16 3.64 18.16 l-4.4 0 l0 9.92 z M231.19200000000004 36.6 c-1.24 2.92 -0.44 3.16 1.92 3.16 l0 0.28 l-6.64 0 l0 -0.28 c2.12 0 2.68 0 3.72 -2.36 l10.2 -23.12 l0.2 0 l10.24 23.04 c1.04 2.08 1.32 2.44 3.52 2.44 l0 0.28 l-6.52 0 l0 -0.28 c2.32 0 2.32 -0.28 0.84 -3.64 l-2.84 -6.32 l-11.64 0 z M239.99200000000002 16.68 l-5.6 12.6 l11.24 0 z M277.50100000000003 29.8 c-3.12 7 -4.76 10.24 -9.12 10.24 l-12 0 l0 -0.28 c1.96 0 2.76 -0.04 2.76 -1.84 l0 -21 c0 -1.8 -0.8 -1.88 -2.76 -1.88 l0 -0.28 l7.16 0 l0 0.28 c-1.96 0 -2.76 0.08 -2.76 1.88 l0 20.88 c0 1.6 0.56 1.76 2.04 1.8 l5.56 0 c4.12 0 6 -4.12 9.16 -11.28 l6.16 -14 l0 -0.04 l0.2 0 l10.24 23.04 c1.04 2.08 1.32 2.44 3.52 2.44 l0 0.28 l-6.52 0 l0 -0.28 c2.32 0 2.32 -0.28 0.84 -3.64 l-2.84 -6.32 l-11.64 0 z M278.50100000000003 27.560000000000002 c-0.28 0.6 -0.52 1.16 -0.76 1.72 l11.2 0 l-5.64 -12.6 z M324.29 34.4 c-2.84 4.08 -7.28 6 -11.6 6 c-6.84 0 -13.44 -4.72 -13.44 -13.16 c0 -8.24 6.44 -12.84 13.56 -12.84 c3.44 0 7.04 1.08 10.16 3.32 l0 2.12 l-0.2 0 c-2.36 -3.4 -6.2 -5 -10 -5 c-6.08 0 -12.08 4.08 -12.08 11.52 c0 8.36 6.4 13.08 12.88 13.08 c3.88 0 7.8 -1.68 10.36 -5.28 z M348.23900000000003 34 l0.32 0.04 l-1.76 6 l-19.72 0 l0 -0.28 c1.96 0 2.76 -0.04 2.76 -1.88 l0 -20.96 c0 -1.84 -0.8 -1.88 -2.76 -1.88 l0 -0.28 l18.36 0 l1.76 6 l-0.32 0.08 c-1.72 -5.52 -2.04 -5.64 -5.68 -5.64 l-9.72 0 l0 11.28 l5.92 0 c1.84 0 2.36 -0.4 2.68 -1.8 l0.2 0 l0 4.08 l-0.2 0 c-0.32 -1.4 -0.84 -1.8 -2.68 -1.8 l-5.92 0 l0 10.84 c0 1.6 0.6 1.76 2.04 1.8 l9.04 0 c4 0 3.96 -0.32 5.68 -5.6 z" fill="#FFFFFF"></path></g></svg>